# xmcd CD database file
#
# Track frame offsets:
#	150
#	24413
#	48067
#
# Disc length: 909 seconds
#
# Revision: 1
# Processed by: cddbd v1.5.1PL0 Copyright (c) Steve Scherf et al.
# Submitted via: CDex 1.40Beta9
#
DISCID=16038b03
DTITLE=天野月子 - 翡翠
DYEAR=2005
DGENRE=JPop
TTITLE0=翡翠
TTITLE1=カメリア 〜愛のバージョン〜
TTITLE2=骨 〜愛のバージョン〜
EXTD=YEAR: 2005
EXTT0=
EXTT1=
EXTT2=
PLAYORDER=
